<?xml version="1.0" encoding="UTF-8"?>
<svg width="281px" height="75px" viewBox="0 0 281 75" version="1.1" xmlns="http://www.w3.org/2000/svg" xmlns:xlink="http://www.w3.org/1999/xlink">
    <!-- Generator: Sketch 46.1 (44463) - http://www.bohemiancoding.com/sketch -->
    <title>Collabary_logo_dark</title>
    <desc>Created with Sketch.</desc>
    <defs></defs>
    <g id="Page-1" stroke="none" stroke-width="1" fill="none" fill-rule="evenodd">
        <g id="Collabary_logo_dark" fill="#222222">
            <g id="LOGO">
                <g id="Group">
                    <g id="Group-4">
                        <g id="Group-2" transform="translate(84.000000, 20.000000)">
                            <path d="M87.6305319,50.3784124 L87.6305319,39.5594874 L91.3502451,39.5594874 C92.0559257,39.5594874 92.6584785,39.6268244 93.1579214,39.7615005 C93.6573644,39.8961766 94.0673487,40.0882118 94.3878867,40.337612 C94.7084248,40.5870122 94.943234,40.8887818 95.0923214,41.2429301 C95.2414089,41.5970783 95.3159515,41.9961126 95.3159515,42.4400449 C95.3159515,42.694433 95.2786802,42.9375946 95.2041365,43.1695367 C95.1295927,43.4014789 95.0140517,43.6184538 94.8575099,43.8204679 C94.700968,44.022482 94.5021878,44.2057884 94.261163,44.3703925 C94.0201383,44.5349966 93.7331493,44.6746586 93.4001873,44.7893827 C94.8811227,45.1235789 95.6215792,45.9266354 95.6215792,47.1985762 C95.6215792,47.6574725 95.5346128,48.0814464 95.3606775,48.4705107 C95.1867421,48.8595749 94.9332973,49.1950131 94.6003353,49.4768353 C94.2673733,49.7586575 93.857389,49.9793733 93.37037,50.1389894 C92.883351,50.2986055 92.3267662,50.3784124 91.7005989,50.3784124 L87.6305319,50.3784124 Z M89.635748,45.634845 L89.635748,48.8071992 L91.6707815,48.8071992 C92.0435002,48.8071992 92.3553367,48.7623079 92.6063006,48.6725238 C92.8572645,48.5827397 93.0585295,48.4630295 93.2101018,48.3133894 C93.361674,48.1637493 93.4710032,47.9891718 93.5380925,47.7896516 C93.6051819,47.5901315 93.6387261,47.3781446 93.6387261,47.1536844 C93.6387261,46.9192483 93.6014547,46.7085083 93.526911,46.5214582 C93.4523673,46.334408 93.3355839,46.1747943 93.1765573,46.0426122 C93.0175307,45.9104301 92.8137809,45.8094246 92.5653018,45.7395925 C92.3168227,45.6697605 92.0161675,45.634845 91.6633272,45.634845 L89.635748,45.634845 Z M89.635748,44.243199 L91.2384301,44.243199 C91.9192628,44.243199 92.4360915,44.1185008 92.7889318,43.8691007 C93.1417721,43.6197005 93.3181896,43.2231602 93.3181896,42.6794678 C93.3181896,42.1158235 93.1591654,41.7142952 92.8411122,41.4748711 C92.523059,41.2354469 92.0261082,41.1157366 91.3502451,41.1157366 L89.635748,41.1157366 L89.635748,44.243199 Z M103.33898,46.1735467 L103.33898,50.3784124 L101.333764,50.3784124 L101.333764,46.1735467 L97.4053295,39.5594874 L99.172007,39.5594874 C99.3459424,39.5594874 99.4838462,39.6018848 99.5857226,39.6866808 C99.687599,39.7714769 99.773323,39.8787174 99.8428972,40.0084054 L101.818296,43.6221957 C101.932596,43.8366799 102.031987,44.039938 102.116469,44.2319761 C102.200952,44.4240142 102.27798,44.6123085 102.347554,44.7968646 C102.412158,44.6073205 102.485459,44.4165323 102.567457,44.2244941 C102.649455,44.032456 102.747603,43.8316919 102.861903,43.6221957 L104.822393,40.0084054 C104.877059,39.8986694 104.959055,39.7964168 105.068386,39.7016448 C105.177717,39.6068727 105.316863,39.5594874 105.485829,39.5594874 L107.259961,39.5594874 L103.33898,46.1735467 Z M123.285894,39.5594874 L123.285894,40.3002022 C123.285894,40.5296503 123.22129,40.7391433 123.092081,40.9286874 L117.560964,48.7697894 L123.151716,48.7697894 L123.151716,50.3784124 L114.959401,50.3784124 L114.959401,49.5853238 C114.959401,49.4855638 114.976795,49.3895462 115.011582,49.2972681 C115.046369,49.20499 115.091094,49.1189483 115.14576,49.0391402 L120.691785,41.1606284 L115.309755,41.1606284 L115.309755,39.5594874 L123.285894,39.5594874 Z M135.460987,50.3784124 L133.910486,50.3784124 C133.73655,50.3784124 133.593677,50.334768 133.481861,50.247478 C133.370046,50.1601879 133.289291,50.0517005 133.239595,49.9220124 L132.434527,47.714832 L127.96938,47.714832 L127.164312,49.9220124 C127.124556,50.0367365 127.046286,50.141483 126.929501,50.236255 C126.812715,50.3310271 126.669842,50.3784124 126.500876,50.3784124 L124.94292,50.3784124 L129.176983,39.5594874 L131.226925,39.5594874 L135.460987,50.3784124 Z M128.48373,46.2932581 L131.920178,46.2932581 L130.608215,42.6944318 C130.54858,42.5348157 130.482734,42.3465214 130.410675,42.1295432 C130.338616,41.9125651 130.267801,41.6768855 130.198227,41.4224973 C130.128653,41.6768855 130.060322,41.9138121 129.993232,42.1332842 C129.926143,42.3527564 129.860297,42.5447916 129.795693,42.7093957 L128.48373,46.2932581 Z M139.779212,48.7174156 L144.095272,48.7174156 L144.095272,50.3784124 L137.773995,50.3784124 L137.773995,39.5594874 L139.779212,39.5594874 L139.779212,48.7174156 Z M156.15855,50.3784124 L154.608049,50.3784124 C154.434113,50.3784124 154.29124,50.334768 154.179424,50.247478 C154.067609,50.1601879 153.986854,50.0517005 153.937158,49.9220124 L153.13209,47.714832 L148.666943,47.714832 L147.861875,49.9220124 C147.822119,50.0367365 147.743849,50.141483 147.627064,50.236255 C147.510279,50.3310271 147.367405,50.3784124 147.198439,50.3784124 L145.640483,50.3784124 L149.874546,39.5594874 L151.924488,39.5594874 L156.15855,50.3784124 Z M149.181293,46.2932581 L152.617741,46.2932581 L151.305778,42.6944318 C151.246143,42.5348157 151.180297,42.3465214 151.108238,42.1295432 C151.036179,41.9125651 150.965364,41.6768855 150.89579,41.4224973 C150.826216,41.6768855 150.757885,41.9138121 150.690795,42.1332842 C150.623706,42.3527564 150.55786,42.5447916 150.493256,42.7093957 L149.181293,46.2932581 Z M159.52262,39.5594874 C159.612072,39.5594874 159.686615,39.5632283 159.74625,39.5707103 C159.805885,39.5781923 159.859307,39.5931561 159.906518,39.6156021 C159.953729,39.6380482 159.999697,39.6704697 160.044423,39.7128677 C160.089149,39.7552658 160.138845,39.8113799 160.19351,39.881212 L165.85135,47.1162746 C165.831472,46.9416945 165.817806,46.7708579 165.810352,46.6037598 C165.802897,46.4366617 165.79917,46.2807889 165.79917,46.1361368 L165.79917,39.5594874 L167.565847,39.5594874 L167.565847,50.3784124 L166.529695,50.3784124 C166.370668,50.3784124 166.238976,50.3534728 166.134615,50.3035927 C166.030254,50.2537127 165.928379,50.16393 165.828987,50.0342419 L160.19351,42.8291072 C160.208419,42.9887233 160.2196,43.14709 160.227054,43.3042121 C160.234509,43.4613342 160.238236,43.6047372 160.238236,43.7344253 L160.238236,50.3784124 L158.471558,50.3784124 L158.471558,39.5594874 L159.52262,39.5594874 Z M180.516192,44.9689499 C180.516192,45.7620424 180.3845,46.49028 180.121112,47.1536844 C179.857724,47.8170888 179.487496,48.3882066 179.010416,48.867055 C178.533336,49.3459033 177.959358,49.7175039 177.288465,49.9818681 C176.617571,50.2462323 175.87463,50.3784124 175.059619,50.3784124 L170.944826,50.3784124 L170.944826,39.5594874 L175.059619,39.5594874 C175.87463,39.5594874 176.617571,39.6929145 177.288465,39.9597727 C177.959358,40.2266308 178.533336,40.5982315 179.010416,41.0745858 C179.487496,41.5509401 179.857724,42.1208109 180.121112,42.7842154 C180.3845,43.4476198 180.516192,44.1758574 180.516192,44.9689499 Z M178.46625,44.9689499 C178.46625,44.3753775 178.386738,43.8429161 178.227711,43.3715498 C178.068684,42.9001835 177.842572,42.5011492 177.549367,42.174435 C177.256161,41.8477208 176.899599,41.5970774 176.479669,41.4224973 C176.05974,41.2479172 175.586394,41.1606284 175.059619,41.1606284 L172.96495,41.1606284 L172.96495,48.7772714 L175.059619,48.7772714 C175.586394,48.7772714 176.05974,48.6899826 176.479669,48.5154025 C176.899599,48.3408224 177.256161,48.090179 177.549367,47.7634648 C177.842572,47.4367505 178.068684,47.0377163 178.227711,46.56635 C178.386738,46.0949836 178.46625,45.5625223 178.46625,44.9689499 Z M193.630532,44.9689499 C193.630532,45.7620424 193.49884,46.4965149 193.235452,47.1723893 C192.972064,47.8482638 192.601836,48.4330984 192.124756,48.9269107 C191.647676,49.420723 191.073698,49.8060405 190.402805,50.0828747 C189.731911,50.3597089 188.98897,50.4981239 188.173958,50.4981239 C187.358947,50.4981239 186.614763,50.3597089 185.941385,50.0828747 C185.268007,49.8060405 184.691544,49.420723 184.211979,48.9269107 C183.732415,48.4330984 183.360944,47.8482638 183.097556,47.1723893 C182.834168,46.4965149 182.702476,45.7620424 182.702476,44.9689499 C182.702476,44.1758574 182.834168,43.4413849 183.097556,42.7655105 C183.360944,42.089636 183.732415,41.5048014 184.211979,41.0109891 C184.691544,40.5171768 185.268007,40.1318593 185.941385,39.8550251 C186.614763,39.5781909 187.358947,39.4397759 188.173958,39.4397759 C188.98897,39.4397759 189.731911,39.5794379 190.402805,39.8587661 C191.073698,40.1380943 191.647676,40.5234117 192.124756,41.0147301 C192.601836,41.5060484 192.972064,42.089636 193.235452,42.7655105 C193.49884,43.4413849 193.630532,44.1758574 193.630532,44.9689499 Z M191.573135,44.9689499 C191.573135,44.3753775 191.494866,43.8429161 191.338324,43.3715498 C191.181782,42.9001835 190.956912,42.4999023 190.663706,42.170694 C190.370501,41.8414858 190.013939,41.5895954 189.594009,41.4150153 C189.17408,41.2404352 188.700734,41.1531465 188.173958,41.1531465 C187.647183,41.1531465 187.172595,41.2404352 186.75018,41.4150153 C186.327766,41.5895954 185.968719,41.8414858 185.673029,42.170694 C185.377339,42.4999023 185.149984,42.9001835 184.990957,43.3715498 C184.831931,43.8429161 184.752419,44.3753775 184.752419,44.9689499 C184.752419,45.5625223 184.831931,46.0949836 184.990957,46.56635 C185.149984,47.0377163 185.377339,47.4367505 185.673029,47.7634648 C185.968719,48.090179 186.327766,48.3408224 186.75018,48.5154025 C187.172595,48.6899826 187.647183,48.7772714 188.173958,48.7772714 C188.700734,48.7772714 189.17408,48.6899826 189.594009,48.5154025 C190.013939,48.3408224 190.370501,48.090179 190.663706,47.7634648 C190.956912,47.4367505 191.181782,47.0377163 191.338324,46.56635 C191.494866,46.0949836 191.573135,45.5625223 191.573135,44.9689499 Z" id="POWERED-BY-ZALANDO"></path>
                            <path d="M196,0.555329405 L192.067168,0.555329405 L187.753282,14.8859132 L183.435852,0.555329405 L179.311607,0.555329405 L185.594567,19.1537225 L185.594567,31.4429566 L189.575252,31.4429566 L189.575252,19.1537225 L196,0.555329405 Z M168.136977,11.7801821 C168.136977,13.728977 167.082432,14.7950723 165.308316,14.7950723 L161.951496,14.7950723 L161.951496,4.03470809 L165.691142,4.03470809 C167.417405,4.03470809 168.136977,5.00824853 168.136977,6.63138725 L168.136977,11.7801821 Z M173.365392,31.7223353 L173.365392,28.9851098 C172.550114,28.9851098 172.261222,28.6148902 172.261222,27.7801821 L172.261222,21.1950723 C172.261222,18.9686127 171.206677,16.8809855 168.712989,16.3719336 C171.25453,15.7686127 172.117662,14.0974826 172.117662,11.454526 L172.117662,6.7702196 C172.117662,2.50412426 169.817159,0.555329405 165.740768,0.555329405 L157.922957,0.555329405 L157.922957,31.4429566 L161.951496,31.4429566 L161.951496,17.9008034 L165.547582,17.9008034 C167.417405,17.9008034 168.280537,19.1074451 168.280537,20.9619711 L168.280537,28.0132833 C168.280537,30.8859132 169.382935,31.7223353 172.310847,31.7223353 L173.365392,31.7223353 Z M143.871812,20.9156936 L139.460448,20.9156936 L141.713097,7.69919657 L143.871812,20.9156936 Z M149.865881,31.4429566 L143.919666,0.555329405 L139.697942,0.555329405 L133.705646,31.4429566 L137.493146,31.4429566 L138.83481,24.3487949 L144.493905,24.3487949 L145.789489,31.4429566 L149.865881,31.4429566 Z M122.289977,25.4148902 C122.289977,26.9917515 121.572178,27.9652919 119.893768,27.9652919 L115.960936,27.9652919 L115.960936,17.345474 L119.459544,17.345474 C121.283286,17.345474 122.289977,18.4115694 122.289977,20.3603642 L122.289977,25.4148902 Z M122.146417,11.2231387 C122.146417,13.1702196 121.139726,14.2363149 119.315984,14.2363149 L115.960936,14.2363149 L115.960936,4.03470809 L119.750208,4.03470809 C121.474699,4.03470809 122.146417,5.00824853 122.146417,6.63138725 L122.146417,11.2231387 Z M126.270662,25.2297804 L126.270662,20.6843064 C126.270662,18.0396358 125.263971,16.2313873 122.674576,15.6297804 C125.024704,15.0247456 126.079249,13.3570434 126.079249,10.6198179 L126.079249,6.7702196 C126.079249,2.50412426 123.824827,0.555329405 119.750208,0.555329405 L111.930625,0.555329405 L111.930625,31.4429566 L119.893768,31.4429566 C123.968387,31.4429566 126.270662,29.4958757 126.270662,25.2297804 L126.270662,25.2297804 Z M97.8812529,20.9156936 L93.4681159,20.9156936 L95.7225377,7.69919657 L97.8812529,20.9156936 Z M103.875321,31.4429566 L97.9291062,0.555329405 L93.7073824,0.555329405 L87.7133143,31.4429566 L91.5025862,31.4429566 L92.8460231,24.3487949 L98.5033458,24.3487949 L99.7989294,31.4429566 L103.875321,31.4429566 Z M80.9039679,31.4429566 L80.9039679,27.872737 L72.6076247,27.872737 L72.6076247,0.555329405 L68.6269396,0.555329405 L68.6269396,31.4429566 L80.9039679,31.4429566 Z M60.2827432,31.4429566 L60.2827432,27.872737 L51.9846276,27.872737 L51.9846276,0.555329405 L48.0057149,0.555329405 L48.0057149,31.4429566 L60.2827432,31.4429566 Z M34.530582,24.8115694 C34.530582,26.94376 33.330705,28.4760578 30.9805766,28.4760578 C28.5825949,28.4760578 27.4323435,26.94376 27.4323435,24.8115694 L27.4323435,7.18843064 C27.4323435,5.10080343 28.5825949,3.52394215 30.9805766,3.52394215 C33.330705,3.52394215 34.530582,5.10080343 34.530582,7.18843064 L34.530582,24.8115694 Z M38.5094947,24.3933583 L38.5094947,7.60492769 C38.5094947,3.24627745 35.8704742,0 30.9805766,0 C26.0889066,0 23.4516584,3.24627745 23.4516584,7.60492769 L23.4516584,24.3933583 C23.4516584,28.8 26.0889066,32 30.9805766,32 C35.8704742,32 38.5094947,28.8 38.5094947,24.3933583 L38.5094947,24.3933583 Z M14.7707165,24.8578468 L14.7707165,20.5900375 L11.2224835,20.5900375 L11.2224835,24.9504017 C11.2224835,27.0843064 9.97475314,28.4760578 7.62462473,28.4760578 C5.22664304,28.4760578 3.98068507,27.0380289 3.98068507,25.0892341 L3.98068507,6.90905196 C3.98068507,5.00824853 5.22664304,3.52394215 7.62462473,3.52394215 C9.97475314,3.52394215 11.2224835,4.96197108 11.2224835,7.04959829 L11.2224835,11.3619711 L14.7707165,11.3619711 L14.7707165,7.14215319 C14.7707165,3.10573112 12.3745072,0 7.48106485,0 C2.58939487,0 0,3.3851098 0,7.41981789 L0,24.5801821 C0,28.6611676 2.58939487,32 7.48106485,32 C12.3745072,32 14.7707165,28.8925549 14.7707165,24.8578468 L14.7707165,24.8578468 Z" id="Fill-36"></path>
                        </g>
                        <g id="Group-35">
                            <path d="M51.6164672,17.4723529 C54.3153328,20.1758824 56.1098571,23.6294118 56.7752824,27.3494118 L45.0630908,21.2594118 C44.9055832,18.2135294 44.1322034,15.2364706 42.7960437,12.5258824 C46.128479,13.3147059 49.1476689,15.0017647 51.6164672,17.4723529 L51.6164672,17.4723529 Z M22.6173782,14.7811765 C17.8956908,19.5070588 15.7896908,27.5647059 15.7896908,40.9023529 C15.7896908,49.9164706 16.7365059,56.43 18.7540185,61.1629412 C15.2623059,60.42 12.1015361,58.6976471 9.53009244,56.1229412 C5.57647563,52.1664706 3.81557647,44.94 3.81557647,32.6947059 C3.81557647,20.4458824 5.57647563,13.2194118 9.53009244,9.26294118 C13.0412723,5.74588235 17.711637,3.81 22.6775496,3.81 C27.2629664,3.81 31.5935395,5.45823529 34.9932252,8.47588235 C30.3299395,9.20470588 25.9958269,11.4 22.6173782,14.7811765 L22.6173782,14.7811765 Z M38.5274118,58.8176471 C42.0067361,55.3341176 44.233079,50.8235294 44.8878857,45.9917647 L57.0318958,52.3041176 C56.7575849,56.8464706 54.8480269,61.0976471 51.6164672,64.3341176 C48.1035176,67.8494118 43.4349227,69.7888235 38.4690101,69.7888235 C33.8835933,69.7888235 29.5547899,68.1370588 26.1515647,65.1194118 C30.8183899,64.3923529 35.1507328,62.1970588 38.5274118,58.8176471 L38.5274118,58.8176471 Z M60.8793277,33.7817647 L60.8793277,30.6405882 C60.8793277,24.6494118 58.5485697,19.0182353 54.3171025,14.7811765 C50.4855983,10.9464706 45.4382773,8.64352941 40.0582437,8.26411765 C39.5751025,7.67117647 39.0618756,7.10294118 38.5274118,6.57 C34.2959445,2.33294118 28.6663765,0 22.6775496,0 C16.6922622,0 11.0609244,2.33294118 6.82768739,6.57 C2.106,11.2976471 0,19.3535294 0,32.6947059 C0,46.0341176 2.106,54.0882353 6.82768739,58.8176471 C10.6733496,62.6647059 15.7419076,64.9676471 21.1414084,65.3347059 C21.5980034,65.9364706 22.084684,66.4905882 22.6173782,67.0252941 C26.8523849,71.2641176 32.4801832,73.5988235 38.4690101,73.5988235 C44.4560672,73.5988235 50.0838655,71.2641176 54.3171025,67.0252941 C58.5485697,62.7917647 60.8793277,57.1588235 60.8793277,51.1658824 L60.8793277,50.0082353 L41.2758303,39.8152941 L41.2758303,42.9547059 C41.2758303,47.9294118 39.3414958,52.6058824 35.8285462,56.1229412 C32.4447882,59.5094118 27.988563,61.4294118 23.2067042,61.5670588 C20.7520639,57.3441176 19.6052672,50.7494118 19.6052672,40.9023529 C19.6052672,28.6552941 21.3661664,21.4288235 25.3197832,17.4741176 C28.7407059,14.0505882 33.2694908,12.1235294 38.104442,12.0247059 C40.1821261,15.0988235 41.2758303,18.6847059 41.2758303,22.4311765 L41.2758303,23.5870588 L60.8793277,33.7817647 Z" id="Fill-33"></path>
                        </g>
                    </g>
                </g>
            </g>
        </g>
    </g>
</svg>